<?xml version="1.0" standalone="no"?>
<!DOCTYPE svg PUBLIC "-//W3C//DTD SVG 20010904//EN"
 "http://www.w3.org/TR/2001/REC-SVG-20010904/DTD/svg10.dtd">
<svg version="1.0" xmlns="http://www.w3.org/2000/svg"
 width="512.000000pt" height="512.000000pt" viewBox="0 0 512.000000 512.000000"
 preserveAspectRatio="xMidYMid meet">

<g transform="translate(0.000000,512.000000) scale(0.100000,-0.100000)"
fill="#000000" stroke="none">
<path d="M1949 5026 c-101 -38 -170 -92 -217 -169 -48 -79 -62 -143 -62 -284
l0 -123 -495 0 -495 0 0 -95 0 -95 99 0 99 0 6 -62 c3 -35 49 -886 101 -1893
52 -1007 97 -1854 101 -1883 3 -30 20 -82 40 -122 57 -114 161 -189 291 -210
81 -14 2219 -13 2301 0 84 14 142 42 206 101 55 50 97 118 115 184 12 46 15
104 121 2165 43 855 82 1592 86 1638 l6 82 94 0 94 0 0 95 0 95 -494 0 -494 0
-4 148 -3 148 -38 76 c-43 87 -98 142 -186 185 l-56 28 -590 2 c-472 2 -597
-1 -626 -11z m1196 -195 c91 -42 115 -97 115 -261 l0 -120 -701 0 -701 0 4
134 c3 131 4 135 33 178 17 23 49 53 70 65 l40 23 550 0 c514 0 553 -2 590
-19z m908 -578 c3 -5 -40 -865 -94 -1913 -96 -1876 -98 -1906 -121 -1949 -13
-25 -40 -58 -61 -75 l-39 -31 -1159 -3 c-1143 -2 -1160 -2 -1199 18 -49 25
-86 73 -99 130 -11 45 -211 3809 -204 3823 2 4 672 7 1488 7 816 0 1486 -3
1488 -7z"/>
<path d="M3260 3836 c0 -12 -45 -723 -99 -1581 -55 -858 -97 -1562 -94 -1565
2 -3 45 -7 94 -10 l89 -5 5 40 c8 66 197 3126 194 3129 -2 2 -46 6 -96 8 -89
4 -93 3 -93 -16z"/>
<path d="M1717 3843 l-48 -4 6 -67 c9 -100 195 -3025 195 -3064 l0 -33 87 3
c49 2 92 8 97 13 9 8 -175 2996 -191 3117 l-5 42 -47 -2 c-25 -1 -68 -3 -94
-5z"/>
<path d="M2470 2265 l0 -1585 95 0 95 0 0 1585 0 1585 -95 0 -95 0 0 -1585z"/>
</g>
</svg>
