<?xml version="1.0" standalone="no"?>
<!DOCTYPE svg PUBLIC "-//W3C//DTD SVG 20010904//EN"
 "http://www.w3.org/TR/2001/REC-SVG-20010904/DTD/svg10.dtd">
<svg version="1.0" xmlns="http://www.w3.org/2000/svg"
 width="512.000000pt" height="512.000000pt" viewBox="0 0 512.000000 512.000000"
 preserveAspectRatio="xMidYMid meet">

<g transform="translate(0.000000,512.000000) scale(0.100000,-0.100000)"
fill="#000000" stroke="none">
<path d="M248 4341 l-33 -29 -3 -179 c-4 -205 3 -244 51 -273 39 -24 68 -25
108 -4 46 23 59 67 59 194 l0 110 234 0 234 0 52 -132 c670 -1730 846 -2172
873 -2192 28 -21 30 -21 1215 -24 834 -2 1198 0 1225 8 20 6 43 21 51 33 15
22 571 1475 588 1534 13 46 -11 99 -54 118 -33 14 -3065 437 -3141 437 -80 1
-128 -76 -94 -148 11 -22 29 -40 50 -48 17 -7 696 -105 1507 -216 811 -112
1476 -204 1478 -205 2 -2 -408 -1086 -483 -1277 -7 -17 -69 -18 -1109 -18
l-1101 0 -445 1146 c-371 957 -449 1150 -473 1170 l-29 24 -364 0 -364 0 -32
-29z"/>
<path d="M2298 1671 c-75 -25 -122 -54 -186 -115 -96 -92 -142 -202 -142 -336
0 -263 207 -470 470 -470 186 0 344 98 425 265 116 237 19 513 -220 631 -71
35 -83 38 -183 41 -84 2 -119 -1 -164 -16z m247 -215 c173 -81 208 -301 68
-427 -110 -99 -271 -89 -367 23 -90 105 -83 261 16 355 77 74 189 93 283 49z"/>
<path d="M3519 1667 c-370 -134 -432 -624 -106 -840 89 -59 165 -80 282 -75
91 3 107 7 179 41 191 91 302 298 268 499 -28 159 -124 286 -269 356 -72 34
-86 37 -183 40 -90 2 -114 -1 -171 -21z m242 -202 c104 -36 169 -130 169 -245
0 -271 -354 -360 -484 -121 -40 74 -40 168 1 242 63 117 189 166 314 124z"/>
</g>
</svg>
