<?xml version="1.0" standalone="no"?>
<!DOCTYPE svg PUBLIC "-//W3C//DTD SVG 20010904//EN"
 "http://www.w3.org/TR/2001/REC-SVG-20010904/DTD/svg10.dtd">
<svg version="1.0" xmlns="http://www.w3.org/2000/svg"
 width="408.000000pt" height="357.000000pt" viewBox="0 0 408.000000 357.000000"
 preserveAspectRatio="xMidYMid meet">

<g transform="translate(0.000000,357.000000) scale(0.100000,-0.100000)"
fill="#000000" stroke="none">
<path d="M926 3559 c-243 -35 -431 -132 -611 -313 -156 -158 -243 -314 -292
-528 -24 -103 -24 -381 0 -500 49 -246 154 -453 357 -708 105 -131 452 -480
670 -672 251 -222 963 -816 988 -826 4 -1 52 35 107 80 386 318 657 546 830
697 244 213 611 578 725 721 201 252 308 465 357 708 24 119 24 397 0 500 -25
108 -78 241 -133 334 -67 114 -248 295 -362 362 -209 124 -464 177 -706 147
-129 -17 -222 -43 -333 -96 -134 -63 -232 -135 -366 -266 l-117 -115 -113 111
c-168 166 -315 262 -494 321 -147 48 -353 65 -507 43z m384 -258 c224 -60 419
-207 650 -489 41 -50 77 -91 80 -91 3 0 39 41 80 91 177 216 362 376 513 443
353 155 782 59 1015 -229 160 -197 222 -447 177 -722 -79 -486 -413 -863
-1707 -1923 l-77 -63 -108 88 c-1014 830 -1404 1219 -1578 1579 -75 153 -115
327 -115 493 0 418 278 757 685 838 96 19 287 12 385 -15z"/>
</g>
</svg>
