<?xml version="1.0" standalone="no"?>
<!DOCTYPE svg PUBLIC "-//W3C//DTD SVG 20010904//EN"
 "http://www.w3.org/TR/2001/REC-SVG-20010904/DTD/svg10.dtd">
<svg version="1.0" xmlns="http://www.w3.org/2000/svg"
 width="408.000000pt" height="357.000000pt" viewBox="0 0 408.000000 357.000000"
 preserveAspectRatio="xMidYMid meet">

<g transform="translate(0.000000,357.000000) scale(0.100000,-0.100000)"
fill="#000000" stroke="none">
<path d="M887 3554 c-415 -75 -747 -384 -854 -792 -53 -206 -40 -492 33 -712
151 -454 547 -875 1759 -1869 115 -94 215 -169 221 -167 26 10 681 556 934
778 857 753 1119 1166 1097 1733 -11 291 -114 531 -312 730 -291 290 -723 390
-1124 259 -183 -60 -306 -139 -483 -313 l-118 -114 -117 114 c-174 170 -299
251 -473 310 -175 58 -388 75 -563 43z"/>
</g>
</svg>
