<?xml version="1.0" standalone="no"?>
<!DOCTYPE svg PUBLIC "-//W3C//DTD SVG 20010904//EN"
 "http://www.w3.org/TR/2001/REC-SVG-20010904/DTD/svg10.dtd">
<svg version="1.0" xmlns="http://www.w3.org/2000/svg"
 width="526.000000pt" height="489.000000pt" viewBox="0 0 526.000000 489.000000"
 preserveAspectRatio="xMidYMid meet">

<g transform="translate(0.000000,489.000000) scale(0.100000,-0.100000)"
fill="#000000" stroke="none">
<path d="M671 2899 c-82 -14 -178 -65 -242 -128 -246 -247 -122 -670 220 -751
44 -10 465 -13 2070 -13 2245 1 2052 -5 2166 68 121 77 205 231 205 374 0 54
-26 163 -50 211 -49 95 -147 182 -252 221 l-63 24 -2000 1 c-1147 1 -2023 -2
-2054 -7z"/>
</g>
</svg>
