<?xml version="1.0" standalone="no"?>
<!DOCTYPE svg PUBLIC "-//W3C//DTD SVG 20010904//EN"
 "http://www.w3.org/TR/2001/REC-SVG-20010904/DTD/svg10.dtd">
<svg version="1.0" xmlns="http://www.w3.org/2000/svg"
 width="526.000000pt" height="489.000000pt" viewBox="0 0 526.000000 489.000000"
 preserveAspectRatio="xMidYMid meet">

<g transform="translate(0.000000,489.000000) scale(0.100000,-0.100000)"
fill="#000000" stroke="none">
<path d="M2578 4831 c-147 -40 -254 -139 -310 -286 l-23 -60 -5 -785 -5 -785
-785 -5 c-779 -5 -785 -5 -843 -27 -122 -46 -213 -125 -262 -228 -124 -263 22
-569 303 -635 40 -9 246 -13 820 -14 l767 -1 5 -790 c5 -785 5 -790 27 -848
46 -122 125 -213 228 -262 263 -124 569 22 635 303 9 40 13 247 14 825 l1 772
795 1 c883 1 834 -3 945 69 121 77 205 231 205 374 0 54 -26 163 -50 211 -49
96 -148 182 -252 221 l-63 24 -790 5 -790 5 -1 790 c-1 729 -2 794 -19 840
-52 147 -165 249 -320 290 -76 19 -143 18 -227 -4z"/>
</g>
</svg>
