<?xml version="1.0" standalone="no"?>
<!DOCTYPE svg PUBLIC "-//W3C//DTD SVG 20010904//EN"
 "http://www.w3.org/TR/2001/REC-SVG-20010904/DTD/svg10.dtd">
<svg version="1.0" xmlns="http://www.w3.org/2000/svg"
 width="526.000000pt" height="489.000000pt" viewBox="0 0 526.000000 489.000000"
 preserveAspectRatio="xMidYMid meet">

<g transform="translate(0.000000,489.000000) scale(0.100000,-0.100000)"
fill="#000000" stroke="none">
<path d="M4179 4875 c-373 -61 -670 -329 -766 -694 -22 -82 -26 -115 -24 -231
0 -74 2 -148 3 -164 3 -32 116 22 -1127 -538 -269 -121 -506 -228 -525 -238
l-35 -18 -83 89 c-125 133 -271 223 -435 268 -329 90 -668 -2 -912 -248 -177
-178 -267 -398 -268 -651 -1 -189 42 -341 139 -498 120 -192 317 -341 539
-408 81 -25 106 -27 250 -28 139 -1 171 2 240 22 114 33 251 102 337 170 70
56 178 167 178 184 0 4 4 8 9 8 8 0 1620 -713 1681 -744 14 -7 24 -18 22 -25
-41 -188 -10 -426 81 -606 96 -191 260 -349 454 -437 218 -98 494 -106 717
-20 268 105 472 322 559 597 106 336 9 709 -245 951 -124 118 -255 191 -419
236 -120 33 -336 33 -458 0 -103 -28 -208 -75 -290 -131 -74 -51 -179 -148
-212 -196 -13 -19 -28 -35 -32 -35 -11 0 -1679 741 -1694 752 -7 6 -9 19 -3
37 22 79 21 234 -3 365 -1 5 41 29 93 52 52 24 433 196 845 383 l750 339 29
-36 c352 -443 967 -495 1383 -118 291 265 381 714 214 1072 -98 207 -243 356
-444 454 -171 83 -370 114 -548 85z m262 -375 c192 -36 373 -209 424 -407 19
-74 19 -213 0 -287 -47 -181 -188 -332 -366 -392 -83 -28 -224 -35 -311 -15
-185 43 -346 191 -403 373 -30 96 -34 242 -9 329 56 189 211 344 395 393 64
17 195 20 270 6z m-3351 -1511 c105 -29 164 -63 245 -144 77 -76 125 -157 150
-250 19 -74 19 -223 0 -295 -91 -342 -471 -516 -789 -361 -136 67 -226 163
-283 304 -31 76 -42 239 -23 330 28 139 143 292 272 365 122 70 290 90 428 51z
m3345 -1494 c190 -40 342 -170 412 -353 31 -81 42 -235 23 -325 -19 -95 -75
-194 -154 -273 -141 -141 -340 -196 -535 -148 -189 47 -348 201 -405 393 -20
69 -21 227 -1 301 77 288 367 466 660 405z"/>
</g>
</svg>
