<?xml version="1.0" standalone="no"?>
<!DOCTYPE svg PUBLIC "-//W3C//DTD SVG 20010904//EN"
 "http://www.w3.org/TR/2001/REC-SVG-20010904/DTD/svg10.dtd">
<svg version="1.0" xmlns="http://www.w3.org/2000/svg"
 width="526.000000pt" height="489.000000pt" viewBox="0 0 526.000000 489.000000"
 preserveAspectRatio="xMidYMid meet">

<g transform="translate(0.000000,489.000000) scale(0.100000,-0.100000)"
fill="#000000" stroke="none">
<path d="M1247 4280 c-127 -22 -258 -119 -321 -239 -91 -173 -67 -356 69 -520
30 -36 279 -291 554 -566 l501 -500 -539 -540 c-302 -302 -553 -562 -570 -590
-173 -276 -9 -635 314 -686 56 -9 84 -8 140 4 155 33 137 17 742 620 l552 550
43 -40 c24 -22 259 -256 523 -520 264 -264 508 -500 543 -526 34 -25 88 -55
118 -67 290 -108 604 111 604 420 0 75 -24 164 -63 230 -22 38 -196 220 -572
598 -297 298 -541 546 -543 550 -1 4 245 255 548 556 302 302 560 567 574 590
36 62 58 149 58 229 -1 176 -96 322 -261 405 -73 36 -77 37 -190 37 -111 0
-119 -2 -191 -34 -73 -34 -91 -51 -625 -583 -303 -301 -555 -548 -560 -548 -5
0 -259 249 -565 553 -508 507 -560 556 -616 580 -99 44 -169 53 -267 37z"/>
</g>
</svg>
